<?xml version="1.0" encoding="UTF-8" standalone="no"?>
<!DOCTYPE svg PUBLIC "-//W3C//DTD SVG 1.1//EN" "http://www.w3.org/Graphics/SVG/1.1/DTD/svg11.dtd">
<svg xmlns="http://www.w3.org/2000/svg" xmlns:xlink="http://www.w3.org/1999/xlink" width="555" height="500" version="1.1">
    <defs>
        <path id="arrow" d="m 0 0 l -14 5 v -10 z"/>
    </defs>
    <path fill="#f0f0a0" stroke-width="1.89794801" d="M 117.42233 110.48971 A 300.46670 147.47556          -45.49000 0 0 238.53786 399.38818" fill-opacity="0.6" stroke="#000000"/>
    <ellipse rx="300.46670" fill="#d2d2d2" ry="147.47556" cx="177.98010" cy="254.93894" stroke="none"/>
    <line y2="270.17398" stroke-width="1.15914595" x1="177.98010" x2="497.70418" stroke="#ff2020" y1="254.93894"/>
    <use transform="translate(497.70418 270.17398) rotate(2.72811)" fill="#ff2020" xlink:href="#arrow"/>
    <path fill="none" stroke-width="2.48823" d="M 206.45629 256.29585 A 28.61008 14.04245 0.0 1 0          183.74633 268.69323" stroke="#17ab34"/>
    <use transform="translate(183.74633 268.69323) rotate(2)" fill="#17ab34" xlink:href="#arrow"/>
    <path fill="#f0f0a0" stroke-width="1.89794801" d="M 117.42233 110.48971 A 300.46670 147.47556          -45.49000 0 1 238.53786 399.38818" fill-opacity="0.6" stroke="#000000"/>
    <line y2="47.87766" stroke-width="1.15914595" x1="177.98010" x2="395.03658" y1="254.93894" stroke="#3a20ff"/>
    <line y2="254.93894" stroke-width="1.15914595" x1="244.89699" x2="177.98010" stroke="#ff2020" y1="33.12704"/>
    <path fill="none" d="M 189.71775 282.93691 A 58.23816 28.58455 -45.49000 0 0 220.05122          214.80515" stroke-width="2.62202" stroke="#6028ff"/>
    <use transform="translate(220.05122 214.80515) rotate(-106)" fill="#6028ff" xlink:href="#arrow"/>
    <path fill="none" d="M 220.05122 214.80515 A 58.23816 28.58455 -45.49000 0 0 190.95031          211.94610" stroke-width="2.4" stroke="#c20a0a"/>
    <use transform="translate(190.95031 211.94610) rotate(163)" fill="#c20a0a" xlink:href="#arrow"/>
    <path fill="none" d="M 297.82634 390.17533 A 60 60 0 0 0 282.70429 358.77627" stroke-width="2.10753798" stroke="#007d00"/>
    <use transform="translate(282.70429 358.77627) rotate(-123)" fill="#007d00" xlink:href="#arrow"/>
    <circle r="7.96189" cx="244.89699" cy="33.12704"/>
    <g font-family="Lucida Sans Unicode">
        <g font-size="18">
            <switch><text x="17.318008" fill="#17ab34" y="307.79498" id="trsvg17-nl" systemLanguage="nl"><tspan id="trsvg1-nl">Lengte van de klimmende knoop</tspan></text><text x="17.318008" fill="#17ab34" y="307.79498" id="trsvg17-ca" systemLanguage="ca"><tspan id="trsvg1-ca">Longitud del node ascendent</tspan></text><text x="17.318008" fill="#17ab34" y="307.79498" id="trsvg17-es" systemLanguage="es"><tspan id="trsvg1-es">longitud del nodo ascendente</tspan></text><text x="17.318008" fill="#17ab34" y="307.79498" id="trsvg17-ko" systemLanguage="ko"><tspan id="trsvg1-ko">승교점 경도</tspan></text><text x="17.318008" fill="#17ab34" y="307.79498" id="trsvg17"><tspan id="trsvg1">Longitude of ascending node</tspan></text></switch>
            <switch><text x="254.02448" fill="#6028ff" y="214.59079" id="trsvg18-nl" systemLanguage="nl"><tspan id="trsvg2-nl">Argument van het periapsis</tspan></text><text x="254.02448" fill="#6028ff" y="214.59079" id="trsvg18-ca" systemLanguage="ca"><tspan id="trsvg2-ca">Argument del periàpside</tspan></text><text x="254.02448" fill="#6028ff" y="214.59079" id="trsvg18-es" systemLanguage="es"><tspan id="trsvg2-es">argumento de periapsis</tspan></text><text x="254.02448" fill="#6028ff" y="214.59079" id="trsvg18-ko" systemLanguage="ko"><tspan id="trsvg2-ko">근일점 편각</tspan></text><text x="254.02448" fill="#6028ff" y="214.59079" id="trsvg18"><tspan id="trsvg2">Argument of periapsis</tspan></text></switch>
            <switch><text x="69.09743" fill="#c20a0a" y="185.21548" id="trsvg19-nl" systemLanguage="nl"><tspan id="trsvg3-nl">Ware anomalie</tspan></text><text x="69.09743" fill="#c20a0a" y="185.21548" id="trsvg19-ca" systemLanguage="ca"><tspan id="trsvg3-ca">Anomalia veritable</tspan></text><text x="69.09743" fill="#c20a0a" y="185.21548" id="trsvg19-es" systemLanguage="es"><tspan id="trsvg3-es">anomolía verdadera</tspan></text><text x="69.09743" fill="#c20a0a" y="185.21548" id="trsvg19-ko" systemLanguage="ko"><tspan id="trsvg3-ko">진근점 이각</tspan></text><text x="69.09743" fill="#c20a0a" y="185.21548" id="trsvg19"><tspan id="trsvg3">True anomaly</tspan></text></switch>
            <switch><text x="283.70532" fill="#007d00" y="412.6334" id="trsvg20-nl" systemLanguage="nl"><tspan id="trsvg4-nl">Inclinatie</tspan></text><text x="283.70532" fill="#007d00" y="412.6334" id="trsvg20-ca" systemLanguage="ca"><tspan id="trsvg4-ca">Inclinació</tspan></text><text x="283.70532" fill="#007d00" y="412.6334" id="trsvg20-es" systemLanguage="es"><tspan id="trsvg4-es">inclinación</tspan></text><text x="283.70532" fill="#007d00" y="412.6334" id="trsvg20-ko" systemLanguage="ko"><tspan id="trsvg4-ko">경사</tspan></text><text x="283.70532" fill="#007d00" y="412.6334" id="trsvg20"><tspan id="trsvg4">Inclination</tspan></text></switch>
            <switch><text x="209.34987" fill="#ec4040" y="450.1905" id="trsvg21-nl" systemLanguage="nl"><tspan id="trsvg5-nl">Klimmende knoop</tspan></text><text x="209.34987" fill="#ec4040" y="450.1905" id="trsvg21-ca" systemLanguage="ca"><tspan id="trsvg5-ca">Node ascendent</tspan></text><text x="209.34987" fill="#ec4040" y="450.1905" id="trsvg21-es" systemLanguage="es"><tspan id="trsvg5-es">nodo ascendente</tspan></text><text x="209.34987" fill="#ec4040" y="450.1905" id="trsvg21-ko" systemLanguage="ko"><tspan id="trsvg5-ko">승교점</tspan></text><text x="209.34987" fill="#ec4040" y="450.1905" id="trsvg21"><tspan id="trsvg5">Ascending node</tspan></text></switch>
            <switch><text x="501.20322" text-anchor="middle" y="307.01874" id="trsvg22-nl" systemLanguage="nl"><tspan id="trsvg6-nl">Referentie</tspan><tspan x="501.20322" dy="24" id="trsvg7-nl">richting</tspan></text><text x="501.20322" text-anchor="middle" y="307.01874" id="trsvg22-ca" systemLanguage="ca"><tspan id="trsvg6-ca">Direcció de</tspan><tspan x="501.20322" dy="24" id="trsvg7-ca">referència</tspan></text><text x="501.20322" text-anchor="middle" y="307.01874" id="trsvg22-es" systemLanguage="es"><tspan id="trsvg6-es">dirrección </tspan><tspan x="501.20322" dy="24" id="trsvg7-es">de referencia</tspan></text><text x="501.20322" text-anchor="middle" y="307.01874" id="trsvg22-ko" systemLanguage="ko"><tspan id="trsvg6-ko">기준</tspan><tspan x="501.20322" dy="24" id="trsvg7-ko">방향</tspan></text><text x="501.20322" text-anchor="middle" y="307.01874" id="trsvg22"><tspan id="trsvg6">Reference</tspan><tspan x="501.20322" dy="24" id="trsvg7">direction</tspan></text></switch>
            <switch><text x="109.41205" y="29.742874" id="trsvg23-nl" systemLanguage="nl"><tspan id="trsvg8-nl">Hemellichaam</tspan></text><text x="109.41205" y="29.742874" id="trsvg23-ca" systemLanguage="ca"><tspan id="trsvg8-ca">Cos celeste</tspan></text><text x="109.41205" y="29.742874" id="trsvg23-es" systemLanguage="es"><tspan id="trsvg8-es">cuerpo celeste</tspan></text><text x="109.41205" y="29.742874" id="trsvg23-ko" systemLanguage="ko"><tspan id="trsvg8-ko">천체</tspan></text><text x="109.41205" y="29.742874" id="trsvg23"><tspan id="trsvg8">Celestial body</tspan></text></switch>
            <switch><text x="67.46901" y="368.44458" transform="matrix(0.9890034 0.14789264 -0.14789264 0.9890034                 9.937065 -2.5154736)" id="trsvg24-nl" systemLanguage="nl"><tspan id="trsvg9-nl">Referentievlak</tspan></text><text x="67.46901" y="368.44458" transform="matrix(0.9890034 0.14789264 -0.14789264 0.9890034                 9.937065 -2.5154736)" id="trsvg24-ca" systemLanguage="ca"><tspan id="trsvg9-ca">Pla de referència</tspan></text><text x="67.46901" y="368.44458" transform="matrix(0.9890034 0.14789264 -0.14789264 0.9890034                 9.937065 -2.5154736)" id="trsvg24-es" systemLanguage="es"><tspan id="trsvg9-es">plano de referencia</tspan></text><text x="67.46901" y="368.44458" transform="matrix(0.9890034 0.14789264 -0.14789264 0.9890034                 9.937065 -2.5154736)" id="trsvg24-ko" systemLanguage="ko"><tspan id="trsvg9-ko">기준면</tspan></text><text x="67.46901" y="368.44458" transform="matrix(0.9890034 0.14789264 -0.14789264 0.9890034                 9.937065 -2.5154736)" id="trsvg24"><tspan id="trsvg9">Plane of reference</tspan></text></switch>
            <switch><text x="-144.32684" y="464.2918" transform="matrix(0.93274015 -0.36054942 0.36054942                 0.93274015 56.016125 -9.603659)" id="trsvg25-nl" systemLanguage="nl"><tspan id="trsvg10-nl">Baan</tspan></text><text x="-144.32684" y="464.2918" transform="matrix(0.93274015 -0.36054942 0.36054942                 0.93274015 56.016125 -9.603659)" id="trsvg25-ca" systemLanguage="ca"><tspan id="trsvg10-ca">Òrbita</tspan></text><text x="-144.32684" y="464.2918" transform="matrix(0.93274015 -0.36054942 0.36054942                 0.93274015 56.016125 -9.603659)" id="trsvg25-es" systemLanguage="es"><tspan id="trsvg10-es">órbita</tspan></text><text x="-144.32684" y="464.2918" transform="matrix(0.93274015 -0.36054942 0.36054942                 0.93274015 56.016125 -9.603659)" id="trsvg25-ko" systemLanguage="ko"><tspan id="trsvg10-ko">궤도</tspan></text><text x="-144.32684" y="464.2918" transform="matrix(0.93274015 -0.36054942 0.36054942                 0.93274015 56.016125 -9.603659)" id="trsvg25"><tspan id="trsvg10">Orbit</tspan></text></switch>
        </g>
        <g font-size="25">
            <switch><text x="120.31801" fill="#17ab34" y="261.79498" id="trsvg26"><tspan id="trsvg11">Ω</tspan></text></switch>
            <switch><text x="234.02448" fill="#6028ff" y="239.59079" id="trsvg27"><tspan id="trsvg12">ω</tspan></text></switch>
            <switch><text x="209.09743" fill="#c20a0a" y="195.24765" id="trsvg28"><tspan id="trsvg13">ν</tspan></text></switch>
            <switch><text font-style="italic" x="271.4589" fill="#007d00" y="389.5631" id="trsvg29"><tspan id="trsvg14">i</tspan></text></switch>
            <switch><text x="233.34987" fill="#ec4040" y="426.1905" id="trsvg30"><tspan id="trsvg15">☊</tspan></text></switch>
            <switch><text x="503.20322" y="281.01874" id="trsvg31"><tspan id="trsvg16">♈︎</tspan></text></switch>
        </g>
    </g>
</svg>